<?xml version="1.0" encoding="UTF-8"?>
<svg version="1.1" xmlns="http://www.w3.org/2000/svg" width="512" height="512">
<path d="M0 0 C6.82421429 3.97045195 9.80360283 10.52470752 13.42578125 17.26953125 C16.23811725 22.49908167 19.27054433 27.5891374 22.3125 32.6875 C26.67231087 40.02474268 30.96768602 47.39384985 35.1875 54.8125 C40.37259049 63.92673872 45.6597785 72.97597466 51 82 C56.82783151 91.84799961 62.57807422 101.73462381 68.23974609 111.67919922 C72.8647979 119.79117007 77.56523118 127.85828396 82.28027344 135.91821289 C83.37317588 137.78654511 84.4622979 139.65709604 85.546875 141.53027344 C86.44700306 143.06012818 87.37001633 144.57706223 88.328125 146.07128906 C91.05876256 150.40804648 91.05876256 150.40804648 90.76464844 153.37084961 C89.92517422 156.25727932 88.77705996 158.56743619 87.296875 161.18359375 C86.73476318 162.18334229 86.17265137 163.18309082 85.59350586 164.21313477 C84.98514893 165.27717529 84.37679199 166.34121582 83.75 167.4375 C82.81522827 169.08866821 82.81522827 169.08866821 81.86157227 170.77319336 C76.15795966 180.81008409 70.43761947 190.86438408 64.35668945 200.67895508 C62.95728195 202.96555515 62.95728195 202.96555515 61.96166992 205.4050293 C60.84609406 207.78566975 60.02459455 209.31190965 58 211 C53.7785844 211.60384206 49.66882466 211.0578521 45.4375 210.6875 C36.90583679 210.2766719 36.90583679 210.2766719 29.61279297 214.07324219 C25.28920941 219.799155 22.42331956 226.27533115 20 233 C21.13888672 234.11568359 21.13888672 234.11568359 22.30078125 235.25390625 C24.43106597 237.42118578 26.34985077 239.52835665 28.1875 241.9375 C28.67605469 242.56527344 29.16460937 243.19304687 29.66796875 243.83984375 C31 246 31 246 33 252 C44.22 252 55.44 252 67 252 C67.66 250.35 68.32 248.7 69 247 C70.10714389 244.98514317 71.2516774 242.99062077 72.421875 241.01171875 C72.75859726 240.43982315 73.09531952 239.86792755 73.44224548 239.27870178 C74.5415993 237.41303983 75.64573774 235.55026015 76.75 233.6875 C77.90383393 231.73317433 79.0565742 229.77820627 80.20927429 227.82321167 C80.9913348 226.49705629 81.77381822 225.17115023 82.55671692 223.8454895 C85.06502004 219.59610045 87.55343815 215.33591841 90.02734375 211.06640625 C90.64706055 209.99753174 91.26677734 208.92865723 91.90527344 207.82739258 C93.05768322 205.8375124 94.2082044 203.84653674 95.35644531 201.85424805 C97.88688422 197.49346867 100.45870471 193.15768464 103.14453125 188.890625 C103.59803955 188.16391602 104.05154785 187.43720703 104.51879883 186.68847656 C106.26730521 184.6952888 107.41468091 184.36452965 110 184 C114.23725195 190.66199119 118.19558995 197.46527582 122.125 204.3125 C122.79238395 205.47267722 123.45994806 206.63275083 124.12768555 207.79272461 C125.46277388 210.11216132 126.79724637 212.43194805 128.13134766 214.75195312 C133.92177143 224.81672944 139.73284567 234.86938543 145.625 244.875 C146.01816406 245.54265381 146.41132813 246.21030762 146.81640625 246.89819336 C148.83866609 250.33143195 150.86121149 253.7645019 152.88427734 257.19726562 C156.86862522 263.96070198 160.84117344 270.73083186 164.79429626 277.51257324 C166.5333034 280.49466668 168.27734313 283.47346069 170.03710938 286.44335938 C171.8926811 289.57940587 173.72956047 292.72568832 175.5625 295.875 C176.11655518 296.80070801 176.67061035 297.72641602 177.24145508 298.68017578 C180.08512679 303.61471507 181.85727955 307.13322606 181 313 C178.88128303 317.01042855 177.22649693 319.35660882 173 321 C170.60083866 321.24774647 170.60083866 321.24774647 167.8830719 321.24482727 C166.84985809 321.24876495 165.81664429 321.25270264 164.75212097 321.25675964 C163.06026421 321.24821709 163.06026421 321.24821709 161.33422852 321.23950195 C160.14198669 321.24151611 158.94974487 321.24353027 157.72137451 321.24560547 C154.45480856 321.25007876 151.18836252 321.24612953 147.92180371 321.24005914 C144.50081218 321.23708193 141.07988754 321.24921642 137.65892029 321.2610321 C126.00885332 321.29875952 114.35886557 321.31695791 102.70874023 321.30541992 C96.27198133 321.29920222 89.83550421 321.31078926 83.39881462 321.34186524 C79.99419036 321.35745934 76.59012091 321.36354303 73.18548775 321.34728432 C69.38827038 321.3329955 65.59231337 321.3491908 61.79516602 321.37231445 C60.1063456 321.35466286 60.1063456 321.35466286 58.38340759 321.33665466 C52.18461599 321.35153882 52.18461599 321.35153882 46.9261322 324.373703 C45.97269676 325.67372002 45.97269676 325.67372002 45 327 C39.48697224 332.58719405 34.00314909 338.09547409 28.02734375 343.19140625 C25.58571366 345.36958492 23.29951968 347.67248008 21 350 C18.16510001 352.86926241 15.32879341 355.64486711 12.25 358.25 C7.62826822 362.19538079 3.42648472 366.5478178 -0.84423828 370.86376953 C-4.58845188 374.63230278 -8.3919196 378.25621449 -12.46875 381.66796875 C-14.18435144 383.09875951 -14.18435144 383.09875951 -16.125 385.4375 C-18 387 -18 387 -21 387.5625 C-25.0904049 386.79554908 -25.59783886 385.39332313 -28 382 C-29.96631415 378.85290926 -31.82771683 375.64841263 -33.6875 372.4375 C-39.01820075 363.32134168 -44.44539898 354.26939767 -49.9375 345.25 C-50.29580902 344.6615329 -50.65411804 344.0730658 -51.02328491 343.46676636 C-51.37420197 342.89048492 -51.72511902 342.31420349 -52.08666992 341.72045898 C-52.76834229 340.60098877 -53.45001465 339.48151855 -54.15234375 338.328125 C-54.75038818 337.3474707 -55.34843262 336.36681641 -55.96459961 335.35644531 C-58 332 -58 332 -59.11252594 329.52618694 C-61.65048209 324.19831314 -61.65048209 324.19831314 -66.40040684 321.08328819 C-69.42132036 320.74723247 -72.30349388 320.73117873 -75.34204102 320.82055664 C-76.47605347 320.81416168 -77.61006592 320.80776672 -78.77844238 320.80117798 C-82.52191071 320.79116646 -86.26094772 320.85096218 -90.00390625 320.91015625 C-92.60651896 320.91398694 -95.20914291 320.9129781 -97.81175232 320.90733337 C-103.96146772 320.90089643 -110.10979236 320.94266365 -116.25916857 321.00405258 C-127.92381438 321.11861038 -139.58882612 321.13334848 -151.25395012 321.14742851 C-155.08592862 321.16001509 -158.91713549 321.19600885 -162.74891663 321.2358551 C-165.09505995 321.24888532 -167.44120555 321.26151581 -169.78735352 321.27368164 C-170.85398727 321.29082718 -171.92062103 321.30797272 -173.01957703 321.32563782 C-182.14497667 321.34340698 -182.14497667 321.34340698 -186 318 C-188.67974934 313.84176826 -189.53021085 310.89732387 -189 306 C-187.72130159 302.88974622 -186.06110661 300.03030916 -184.375 297.125 C-183.88427002 296.25713867 -183.39354004 295.38927734 -182.88793945 294.49511719 C-181.27421558 291.65415693 -179.63970925 288.82603389 -178 286 C-177.44908691 285.04641602 -176.89817383 284.09283203 -176.33056641 283.11035156 C-172.84598466 277.08574889 -169.33223127 271.07860173 -165.80712891 265.07763672 C-162.82199212 259.99378987 -159.84741941 254.90379048 -156.875 249.8125 C-156.00572876 248.32399536 -156.00572876 248.32399536 -155.11889648 246.80541992 C-150.78833025 239.37872111 -146.51650161 231.91976161 -142.26171875 224.44946289 C-137.97650862 216.9352665 -133.60390635 209.47499735 -129.20019531 202.02978516 C-118.08906124 183.23849779 -107.05447173 164.40180127 -96.25170898 145.43139648 C-92.88314102 139.52364494 -89.45782111 133.65254077 -85.99682617 127.79858398 C-80.17590725 117.93571072 -74.48703235 107.99584561 -68.77050781 98.07226562 C-60.49712015 83.71590733 -52.1574506 69.39850053 -43.80273438 55.08935547 C-41.42933087 51.02204128 -39.05996783 46.95237939 -36.69042969 42.8828125 C-34.95252652 39.90078366 -33.21103326 36.92087769 -31.46875 33.94140625 C-29.10196244 29.89390501 -26.75030962 25.83804486 -24.40625 21.77734375 C-23.25025091 19.78891661 -22.09401014 17.80062995 -20.9375 15.8125 C-20.15137329 14.44037354 -20.15137329 14.44037354 -19.34936523 13.04052734 C-14.66193789 5.01815047 -10.38397806 -1.80014218 0 0 Z M-6 35 C-7.41732482 36.93445685 -8.57858612 38.79387978 -9.75 40.875 C-10.12777588 41.52484863 -10.50555176 42.17469727 -10.89477539 42.84423828 C-11.76783629 44.35022143 -12.63531572 45.85944803 -13.49853516 47.37109375 C-15.18035412 50.315781 -16.87657557 53.25190799 -18.57421875 56.1875 C-21.17652522 60.69004586 -23.77351158 65.1956026 -26.3671875 69.703125 C-29.24097127 74.69185948 -32.13600231 79.6670313 -35.0625 84.625 C-47.03949193 104.92045734 -58.82099314 125.328767 -70.58349609 145.74902344 C-75.08189057 153.5552776 -79.58586898 161.35386313 -84.25 169.0625 C-89.09787332 177.07519027 -93.74817064 185.2012339 -98.41870117 193.31811523 C-102.31984692 200.09538448 -106.24638256 206.85579753 -110.22241211 213.58935547 C-113.83719025 219.71330231 -117.41978075 225.85579553 -121 232 C-125.37139958 239.5006656 -129.7541767 246.99422793 -134.16308594 254.47290039 C-138.46960231 261.78431054 -142.73779853 269.1180801 -147.00390625 276.453125 C-147.56464844 277.41605469 -148.12539062 278.37898437 -148.703125 279.37109375 C-149.24775391 280.30937012 -149.79238281 281.24764648 -150.35351562 282.21435547 C-151.46355476 284.09240211 -152.59838593 285.95598642 -153.75585938 287.80517578 C-154.30564453 288.68544434 -154.85542969 289.56571289 -155.421875 290.47265625 C-155.9178418 291.2500415 -156.41380859 292.02742676 -156.92480469 292.82836914 C-158.2958027 295.19357787 -158.2958027 295.19357787 -158 299 C-139.59016626 299.94453193 -121.29997117 299.99329969 -102.875 299.5625 C-100.34376475 299.50906209 -97.81251462 299.4563248 -95.28125 299.40429688 C-89.18730563 299.27755933 -83.09359847 299.14235926 -77 299 C-82.17100294 289.90538134 -87.40341377 280.84929864 -92.7019043 271.82836914 C-93.83009202 269.90754832 -94.95712683 267.98605455 -96.08398438 266.06445312 C-99.82833666 259.61371866 -99.82833666 259.61371866 -103.76660156 253.28198242 C-105 251 -105 251 -104.46484375 248.1484375 C-102.37399755 243.65451207 -99.80092396 239.5529602 -97.12866211 235.39282227 C-94.14001399 230.67015259 -91.395117 225.9002143 -88.86306763 220.92118835 C-76.4918241 196.65916265 -76.4918241 196.65916265 -70.34667969 193.73925781 C-66.71406531 193.16862743 -63.50548115 193.42466314 -59.8762207 193.89306641 C-55.27951347 194.56324422 -55.27951347 194.56324422 -51.28369141 192.65039062 C-48.08874505 188.58964221 -46.08400397 183.97444354 -44.06445312 179.24951172 C-43.02626579 177.05550757 -41.8573159 175.2366927 -40.421875 173.28515625 C-38.02377111 169.97411385 -36.18120564 166.96706801 -35 163 C-35.89383589 158.74240489 -37.36700561 155.31877425 -39.3046875 151.45703125 C-43.74279224 142.40697897 -41.9419102 133.35183862 -39 124 C-34.71430145 114.21742723 -27.88498609 107.78335756 -18.078125 103.7265625 C-8.30917362 100.31110206 3.28623107 100.79434726 12.74609375 104.8828125 C21.46022936 109.20212408 27.640452 116.08426068 31.5 125.0625 C34.81949839 135.57176396 34.47399636 147.43588483 29.59765625 157.3515625 C23.97586283 166.67081908 16.65783214 172.38196069 6.140625 175.56225586 C3.71194759 176.05890488 1.49425771 176.11276986 -0.984375 176.09765625 C-1.91894531 176.09443359 -2.85351562 176.09121094 -3.81640625 176.08789062 C-4.78449219 176.07951172 -5.75257813 176.07113281 -6.75 176.0625 C-7.73355469 176.05798828 -8.71710938 176.05347656 -9.73046875 176.04882812 C-12.15370791 176.03706483 -14.57682273 176.02062684 -17 176 C-18.25401124 178.18396675 -19.50638951 180.3688146 -20.75537109 182.55566406 C-21.84448496 184.45151678 -22.94397336 186.34144355 -24.05322266 188.22558594 C-26.75465848 192.85417555 -29.24828626 197.39070472 -31.25 202.3671875 C-35.40958919 212.23353604 -35.40958919 212.23353604 -39 215 C-42.5627006 215.62911122 -45.97834907 215.22346334 -49.5625 214.875 C-53.74323475 214.47786385 -57.0627646 214.42908978 -61 216 C-68.03447424 223.03836212 -78.25487716 237.95754265 -79 248 C-77.97753127 250.47821936 -77.97753127 250.47821936 -76.30859375 253.015625 C-75.397146 254.5020752 -75.397146 254.5020752 -74.46728516 256.01855469 C-73.4625415 257.61812012 -73.4625415 257.61812012 -72.4375 259.25 C-71.3925039 260.95079073 -70.34753687 262.65160077 -69.30487061 264.3538208 C-68.58957122 265.52069002 -67.87279677 266.6866562 -67.15460205 267.85174561 C-63.71766475 273.43090622 -60.40970737 279.08033445 -57.125 284.75 C-55.97291244 286.73191978 -54.82056305 288.71368738 -53.66796875 290.6953125 C-53.07806152 291.71012695 -52.4881543 292.72494141 -51.88037109 293.77050781 C-46.63783985 302.77442929 -41.36156228 311.7586822 -36.0849762 320.74267578 C-33.77488699 324.67668507 -31.47216252 328.61493541 -29.171875 332.5546875 C-28.01058593 334.53655752 -26.84913735 336.51833409 -25.6875 338.5 C-25.16663818 339.39541504 -24.64577637 340.29083008 -24.10913086 341.21337891 C-21.65067439 345.39654592 -19.18239819 349.3111394 -16 353 C-15.443125 352.43152344 -14.88625 351.86304688 -14.3125 351.27734375 C-8.31869019 345.21266119 -2.14640108 339.52641234 4.5 334.1875 C5.325 333.465625 6.15 332.74375 7 332 C7 331.34 7 330.68 7 330 C7.56203125 329.76667969 8.1240625 329.53335937 8.703125 329.29296875 C11.56734142 327.68062924 13.47252021 325.6806438 15.75 323.3125 C19.33141724 319.65788591 22.96049857 316.18650326 26.8515625 312.8671875 C30.51269132 309.68533372 34.03689586 306.34918892 37.58203125 303.0390625 C40.8030458 300.32279498 43.16661918 299.87393949 47.24121094 299.90234375 C48.10649414 299.90560669 48.97177734 299.90886963 49.86328125 299.91223145 C50.81074219 299.92057007 51.75820313 299.92890869 52.734375 299.9375 C54.8121739 299.94610459 56.88997342 299.95456102 58.96777344 299.96289062 C60.07245972 299.96909424 61.177146 299.97529785 62.31530762 299.98168945 C83.46644346 300.0944474 104.60285216 299.9163622 125.75 299.5 C126.97360229 299.47599121 128.19720459 299.45198242 129.45788574 299.42724609 C136.30540241 299.2914459 143.15277009 299.14955849 150 299 C149.24946173 294.76888986 147.95498606 291.7888969 145.7890625 288.0546875 C145.46514526 287.4917247 145.14122803 286.9287619 144.80749512 286.34873962 C143.75328953 284.52023616 142.68929494 282.69764603 141.625 280.875 C140.89114052 279.60672468 140.15790924 278.33808566 139.42529297 277.0690918 C137.96448196 274.54135211 136.49979424 272.0159304 135.03125 269.49267578 C133.29453467 266.50855618 131.56677309 263.51939601 129.84375 260.52734375 C124.28736489 250.88486654 118.68913985 241.26506168 113 231.70019531 C112.0910834 230.15485956 111.21546596 228.59005911 110.34375 227.0234375 C109.9003125 226.35570312 109.456875 225.68796875 109 225 C108.34 225 107.68 225 107 225 C105.60793676 226.90390193 105.60793676 226.90390193 104.234375 229.40625 C103.68378418 230.36716553 103.13319336 231.32808105 102.56591797 232.31811523 C101.66703857 233.89314819 101.66703857 233.89314819 100.75 235.5 C100.10562988 236.56613525 99.46125977 237.63227051 98.79736328 238.73071289 C95.44264918 244.34642703 92.62913691 249.70528571 90.5078125 255.90234375 C87.85856405 262.86877228 85.5296368 268.92736097 79 273 C65.14115755 276.93421545 49.17866027 275.07378366 35 274 C34.39816895 275.23194092 34.39816895 275.23194092 33.78417969 276.48876953 C33.25211914 277.56755371 32.72005859 278.64633789 32.171875 279.7578125 C31.38441895 281.36100342 31.38441895 281.36100342 30.58105469 282.99658203 C26.030054 291.64179674 19.19977842 296.45896406 10.2265625 300.13671875 C1.18160581 302.55673743 -9.29440223 302.43433901 -17.75 298.3125 C-19.52778709 297.25365294 -21.28302616 296.15485274 -23 295 C-24.093125 294.29875 -25.18625 293.5975 -26.3125 292.875 C-34.00629402 284.64442965 -37.92892003 275.43482344 -38.0234375 264.21875 C-37.45831273 253.63009644 -33.49471509 244.53803715 -26 237 C-20.56878962 232.55009955 -15.79508011 230.8626444 -8.875 229.9375 C-4.86418064 229.15605941 -2.66366947 228.67771539 0.21484375 225.73828125 C1.91330847 222.99129286 3.40784377 220.20909937 4.82470703 217.30810547 C6.24754349 214.51386038 7.80153372 211.81216312 9.37109375 209.09765625 C11.7404979 204.99601475 14.10899366 200.89456953 16.4375 196.76953125 C16.93121094 195.89917236 17.42492187 195.02881348 17.93359375 194.13208008 C19.14911216 192.09919505 19.14911216 192.09919505 19 190 C19.648479 190.10586426 20.29695801 190.21172852 20.96508789 190.32080078 C28.41397025 191.33245067 35.94069703 191.9697679 43 189 C49.38586884 182.84523166 52.83573495 174.39958697 56.40283203 166.41162109 C58.90823818 161.05996326 61.92833915 156.04625892 65 151 C64.21846558 149.63609131 64.21846558 149.63609131 63.42114258 148.24462891 C60.23412751 142.6810626 57.05747241 137.11295713 53.93139648 131.51489258 C47.44831189 119.91665873 40.71653106 108.4640519 34 97 C33.30576106 95.81400334 32.61158917 94.62796742 31.91748047 93.44189453 C27.28503783 85.52634623 22.64640721 77.61445365 18.00177002 69.70605469 C17.03186728 68.05427125 16.06255445 66.40214147 15.09326172 64.75 C11.41710432 58.48699024 7.72097142 52.2364802 4 46 C3.61070312 45.34193359 3.22140625 44.68386719 2.8203125 44.00585938 C1.85021552 42.37191865 0.86353818 40.74785018 -0.125 39.125 C-0.62257813 38.30257812 -1.12015625 37.48015625 -1.6328125 36.6328125 C-2.08398438 36.09398437 -2.53515625 35.55515625 -3 35 C-3.99 35 -4.98 35 -6 35 Z M-20 128 C-23.02966333 132.00348369 -24.11643587 136.0111708 -24 141 C-23.03373796 147.60468527 -20.24687042 151.54441715 -15.03515625 155.62109375 C-9.84142915 159.14006816 -5.46093948 159.32642689 0.60546875 158.53515625 C6.72223867 157.16811305 10.49954739 152.95897453 14 148 C16.12065782 142.79474899 16.49424032 138.3726729 15 133 C12.02325568 127.27549169 7.21206804 122.07068935 1 120 C-8.16279121 119.1799223 -13.78155644 120.94122623 -20 128 Z M-15.4375 252.375 C-19.67155951 258.00477442 -20.91087508 263.00494653 -20 270 C-18.63509878 274.82898597 -16.43713468 278.06425149 -12.3125 280.9375 C-7.04169754 283.80185476 -2.26098074 284.78847594 3.6171875 283.3671875 C10.60034612 280.90132437 14.09892763 277.88855713 17.375 271.1875 C18.43892682 265.76147322 17.64278263 261.04886962 16 255.8125 C12.41657645 250.77331063 7.15762284 247.07277315 1 245.9375 C-5.4830861 245.61463715 -11.08068755 247.51996325 -15.4375 252.375 Z " fill="#FC7C04" transform="translate(260,52)"/>
<path d="M0 0 C0.66 0 1.32 0 2 0 C2.556875 1.010625 3.11375 2.02125 3.6875 3.0625 C5.21932347 5.76927051 6.88701202 8.26070837 8.75 10.75 C11 14 11 14 11 17 C11.66 17 12.32 17 13 17 C13.42502808 17.87615967 13.42502808 17.87615967 13.85864258 18.77001953 C17.22564059 25.61689834 20.90042082 32.25297253 24.6875 38.875 C25.83811654 40.89272933 26.98789143 42.91093891 28.13671875 44.9296875 C28.89021606 46.24815674 28.89021606 46.24815674 29.65893555 47.59326172 C30.50919539 49.11917862 31.31415476 50.67197244 32.05395508 52.25439453 C32.88159585 54.17966367 32.88159585 54.17966367 35 55 C36.10532106 56.9443342 37.13720928 58.93090098 38.125 60.9375 C38.66382813 62.01902344 39.20265625 63.10054688 39.7578125 64.21484375 C41 67 41 67 41 69 C40.34 69 39.68 69 39 69 C38.72438232 68.49364014 38.44876465 67.98728027 38.16479492 67.46557617 C31.29607066 54.86512736 24.25106122 42.38406994 17 30 C16.5467334 29.22398437 16.0934668 28.44796875 15.62646484 27.6484375 C14.29453866 25.36867548 12.96038269 23.09023884 11.625 20.8125 C11.2323999 20.1419458 10.8397998 19.4713916 10.43530273 18.78051758 C8.02414165 14.68180051 5.5255846 10.65633971 2.93115234 6.6706543 C2 5 2 5 2 3 C1.34 3 0.68 3 0 3 C-0.22171875 3.63164062 -0.4434375 4.26328125 -0.671875 4.9140625 C-2.95726771 10.22423968 -5.91268915 15.18205261 -8.92016602 20.11376953 C-11.97042032 25.16398528 -14.42383142 29.93571128 -16.32421875 35.53125 C-18.97868397 42.41395133 -21.35504731 48.24500904 -28 52 C-42.33444499 55.32716764 -58.56747665 52.68664904 -73 51 C-73 50.67 -73 50.34 -73 50 C-71.71311279 49.98541748 -70.42622559 49.97083496 -69.1003418 49.95581055 C-64.3310145 49.89788852 -59.56216238 49.82065537 -54.79321289 49.73754883 C-52.7281871 49.70427076 -50.66306973 49.67624786 -48.59790039 49.65356445 C-45.63127568 49.62007145 -42.66549252 49.56775855 -39.69921875 49.51171875 C-38.31158577 49.50213387 -38.31158577 49.50213387 -36.8959198 49.49235535 C-36.03525406 49.47256119 -35.17458832 49.45276703 -34.2878418 49.43237305 C-33.53061325 49.42126999 -32.7733847 49.41016693 -31.99320984 49.39872742 C-29.47052629 48.89408256 -28.60551629 47.96925185 -27 46 C-25.80400932 43.96767758 -25.80400932 43.96767758 -24.8125 41.8125 C-24.46832031 41.09707031 -24.12414062 40.38164062 -23.76953125 39.64453125 C-23.38861328 38.83048828 -23.38861328 38.83048828 -23 38 C-22.34 38 -21.68 38 -21 38 C-20.74089844 37.13375 -20.48179687 36.2675 -20.21484375 35.375 C-18.98015675 31.94487277 -17.44798059 29.11408407 -15.5625 26 C-13.19340984 22.07027809 -11.00823292 18.12701077 -9 14 C-8.34 14 -7.68 14 -7 14 C-6.67 12.35 -6.34 10.7 -6 9 C-5.34 9 -4.68 9 -4 9 C-3.71125 8.071875 -3.4225 7.14375 -3.125 6.1875 C-2 3 -2 3 0 0 Z " fill="#F68211" transform="translate(367,274)"/>
<path d="M0 0 C0.66 0 1.32 0 2 0 C2.06058594 0.68707031 2.12117188 1.37414062 2.18359375 2.08203125 C2.26738281 2.98308594 2.35117188 3.88414062 2.4375 4.8125 C2.51871094 5.70582031 2.59992188 6.59914063 2.68359375 7.51953125 C2.93489767 10.12743559 2.93489767 10.12743559 4 13 C4.66 13 5.32 13 6 13 C6.40089844 13.99257813 6.80179688 14.98515625 7.21484375 16.0078125 C9.00150272 20.17283664 11.21746008 24.00358011 13.5625 27.875 C13.96146484 28.55046875 14.36042969 29.2259375 14.77148438 29.921875 C16.78549151 33.5565613 16.78549151 33.5565613 20 36 C20.73025385 37.92521471 21.45576144 39.85252589 22.14453125 41.79296875 C24.44161509 47.84955102 24.44161509 47.84955102 29 52 C29 53.32 29 54.64 29 56 C2.27 56 -24.46 56 -52 56 C-52 55.34 -52 54.68 -52 54 C-51.42221802 54.00261841 -50.84443604 54.00523682 -50.24914551 54.00793457 C-33.32659501 54.07328538 -16.41875789 53.84020174 0.5 53.5 C2.9921834 53.45161124 5.4843709 53.40343316 7.9765625 53.35546875 C13.9844242 53.2393955 19.99223095 53.12076893 26 53 C21.66270502 45.76929985 17.32487694 38.53892917 12.98046875 31.3125 C12.35076172 30.26449219 11.72105469 29.21648437 11.07226562 28.13671875 C9.79677791 26.01398997 8.52071991 23.89160376 7.24414062 21.76953125 C6.02362126 19.73743593 4.80672854 17.703156 3.59423828 15.66625977 C2.62243661 14.04098471 1.6392667 12.42234884 0.63623047 10.81616211 C-2.08137252 6.37295739 -2.08137252 6.37295739 -1.25 2.5625 C-0.63125 1.2940625 -0.63125 1.2940625 0 0 Z " fill="#F8861E" transform="translate(156,297)"/>
<path d="M0 0 C0.495 0.99 0.495 0.99 1 2 C-0.04125977 4.23291016 -0.04125977 4.23291016 -1.69140625 7.0390625 C-2.29919922 8.08191406 -2.90699219 9.12476562 -3.53320312 10.19921875 C-4.20287109 11.32972656 -4.87253906 12.46023437 -5.5625 13.625 C-6.25401735 14.80554348 -6.94476297 15.98653932 -7.63476562 17.16796875 C-9.05710393 19.60050947 -10.48384827 22.03037724 -11.91455078 24.45800781 C-14.3907943 28.66043706 -16.84733135 32.87427437 -19.30322266 37.08862305 C-20.44120343 39.04120157 -21.5802132 40.99318073 -22.72021484 42.94458008 C-27.06717275 50.38646936 -31.38329568 57.8458118 -35.6875 65.3125 C-36.3160791 66.40280518 -36.9446582 67.49311035 -37.59228516 68.61645508 C-39.923218 72.66033974 -42.25374132 76.70445995 -44.58349609 80.74902344 C-49.74013016 89.69754858 -54.92617762 98.62310215 -60.27294922 107.4597168 C-62.22475226 110.68047368 -62.22475226 110.68047368 -64 114 C-64.99 114 -65.98 114 -67 114 C-67 113.34 -67 112.68 -67 112 C-66.34 112 -65.68 112 -65 112 C-64.7525 111.13375 -64.505 110.2675 -64.25 109.375 C-62.92989281 105.81071059 -61.14839092 103.11863198 -59 100 C-58.67 99.01 -58.34 98.02 -58 97 C-57.34 97 -56.68 97 -56 97 C-55.9175 96.0925 -55.835 95.185 -55.75 94.25 C-54.87280903 90.44883912 -53.70812084 89.68838954 -51 87 C-49.36082991 84.45081226 -49.36082991 84.45081226 -47.9375 81.6875 C-47.42574219 80.72457031 -46.91398437 79.76164062 -46.38671875 78.76953125 C-45.24709305 76.49349007 -44.21051289 74.22996307 -43.25 71.875 C-42 69 -42 69 -40 68 C-37.59817801 64.09703926 -35.5697996 60.3169489 -34 56 C-33.34 56 -32.68 56 -32 56 C-31.88269531 55.41863281 -31.76539063 54.83726562 -31.64453125 54.23828125 C-30.9622384 51.86886427 -30.03872992 50.24153681 -28.6875 48.1875 C-24.40215274 41.58161862 -24.40215274 41.58161862 -21 34.5 C-19.64946078 31.12365194 -17.84347321 28.13390445 -16 25 C-15.34 25 -14.68 25 -14 25 C-13.81824219 24.38511719 -13.63648438 23.77023438 -13.44921875 23.13671875 C-13.07216797 21.92435547 -13.07216797 21.92435547 -12.6875 20.6875 C-12.44386719 19.88699219 -12.20023438 19.08648437 -11.94921875 18.26171875 C-10.93255271 15.83929225 -9.85241727 14.81536893 -8 13 C-7.04969568 11.30015988 -6.15596017 9.567809 -5.3125 7.8125 C-4.87550781 6.91144531 -4.43851563 6.01039062 -3.98828125 5.08203125 C-3.66214844 4.39496094 -3.33601563 3.70789063 -3 3 C-2.34 3 -1.68 3 -1 3 C-0.67 2.01 -0.34 1.02 0 0 Z " fill="#F68411" transform="translate(235,117)"/>
<path d="M0 0 C0.66 0 1.32 0 2 0 C2.69222656 1.22009766 2.69222656 1.22009766 3.3984375 2.46484375 C7.09624659 8.96158738 10.82743639 15.43602337 14.625 21.875 C23.73083904 37.3188318 32.80661277 52.78172375 41.64282227 68.38183594 C44.11598096 72.7415574 46.63032916 77.06770274 49.2265625 81.35546875 C49.74452393 82.22002686 50.26248535 83.08458496 50.79614258 83.9753418 C51.78132273 85.61561679 52.77796874 87.24907885 53.7878418 88.87426758 C56.97549206 94.21206986 56.97549206 94.21206986 57.078125 97.51171875 C55.45145016 101.26603713 53.49832838 104.78100389 51.4375 108.3125 C51.01275391 109.05306641 50.58800781 109.79363281 50.15039062 110.55664062 C49.10648347 112.37468118 48.05407808 114.18783748 47 116 C46.34 116 45.68 116 45 116 C45.33 114.35 45.66 112.7 46 111 C46.66 111 47.32 111 48 111 C48 110.01 48 109.02 48 108 C48.66 108 49.32 108 50 108 C50.33 106.02 50.66 104.04 51 102 C51.66 102 52.32 102 53 102 C54.52720534 96.58536288 53.60969201 91.91906231 51 87 C50.01 86.67 49.02 86.34 48 86 C47.2698506 84.41271869 46.54243109 82.82022072 45.94140625 81.1796875 C42.93674263 74.22283148 38.49458676 67.73477359 34.62304688 61.22851562 C28 50.02881231 28 50.02881231 28 47 C27.34 47 26.68 47 26 47 C26 46.01 26 45.02 26 44 C25.34 44 24.68 44 24 44 C23.29423828 42.55367187 23.29423828 42.55367187 22.57421875 41.078125 C21.94552821 39.80197704 21.31660993 38.52594126 20.6875 37.25 C20.37876953 36.61578125 20.07003906 35.9815625 19.75195312 35.328125 C18.08154153 31.95213526 16.30240406 28.97003884 14 26 C13.05511547 24.34916725 12.14043764 22.6808261 11.25 21 C8.43995367 15.76021436 5.46195668 10.63816131 2.41796875 5.53125 C1 3 1 3 0 0 Z " fill="#F88910" transform="translate(294,108)"/>
<path d="M0 0 C0.66 0 1.32 0 2 0 C0.22540361 4.99105236 -2.40358737 9.46684965 -5 14.0625 C-5.8965804 15.65713228 -6.79243915 17.25217056 -7.6875 18.84765625 C-8.08324219 19.54898682 -8.47898438 20.25031738 -8.88671875 20.97290039 C-9.97722743 22.95853495 -11.00080885 24.96711367 -12 27 C-12.66 27 -13.32 27 -14 27 C-14.38091797 28.01900391 -14.38091797 28.01900391 -14.76953125 29.05859375 C-16.21161787 32.50586747 -17.91781164 35.77623774 -19.6875 39.0625 C-20.2148877 40.04778687 -20.2148877 40.04778687 -20.75292969 41.05297852 C-23.53447085 46.2155739 -26.47212556 51.27651782 -29.45703125 56.32421875 C-31.46883488 59.81304277 -33.25539327 63.37121799 -35 67 C-35.66 67 -36.32 67 -37 67 C-37.26683594 67.70253906 -37.53367188 68.40507812 -37.80859375 69.12890625 C-41.5025592 78.03075743 -46.63078454 86.25412607 -51.97875977 94.24194336 C-54.07063347 97.39757581 -55.73981397 100.42613909 -57 104 C-57.66 104 -58.32 104 -59 104 C-57.6449411 99.36905127 -55.67122067 95.49912813 -53.125 91.4375 C-49.31760305 85.23209576 -45.65710707 78.95597222 -42.0625 72.625 C-38.48087782 66.32777827 -34.87590859 60.04781302 -31.1875 53.8125 C-26.9298705 46.61158311 -22.74012619 39.37259599 -18.5625 32.125 C-17.92376953 31.01890381 -17.28503906 29.91280762 -16.62695312 28.77319336 C-13.61995305 23.56266914 -10.62478849 18.34634849 -7.6640625 13.109375 C-7.1580249 12.21976074 -6.6519873 11.33014648 -6.13061523 10.41357422 C-5.1890366 8.75724962 -4.25336293 7.09755016 -3.32446289 5.43408203 C-2.27237586 3.58959123 -1.14434696 1.78871559 0 0 Z " fill="#F88710" transform="translate(204,128)"/>
<path d="M0 0 C0.99 0.495 0.99 0.495 2 1 C-3.84774036 6.93545646 -9.65697516 12.82439796 -16.0078125 18.2265625 C-18.43937981 20.39113418 -20.71211081 22.68429453 -23 25 C-25.83489999 27.86926241 -28.67120659 30.64486711 -31.75 33.25 C-36.37173178 37.19538079 -40.57351528 41.5478178 -44.84423828 45.86376953 C-48.58845188 49.63230278 -52.3919196 53.25621449 -56.46875 56.66796875 C-58.18435144 58.09875951 -58.18435144 58.09875951 -60.125 60.4375 C-62 62 -62 62 -65 62.5625 C-69.08368851 61.7968084 -69.59220481 60.37784218 -72 57 C-73.97485103 53.93019267 -75.86882503 50.81538541 -77.75 47.6875 C-78.25660156 46.85154297 -78.76320312 46.01558594 -79.28515625 45.15429688 C-80.52659793 43.10474693 -81.76477067 41.05329787 -83 39 C-82.34 38.34 -81.68 37.68 -81 37 C-80.48050781 37.9178125 -79.96101562 38.835625 -79.42578125 39.78125 C-77.99159791 42.31122937 -76.54448597 44.83329715 -75.08984375 47.3515625 C-73.87503424 49.45593131 -72.70277352 51.56205769 -71.56640625 53.7109375 C-69.72116236 57.0626264 -68.76044734 58.77820286 -65 59.875 C-60.86259849 58.66825789 -59.53745295 56.40552895 -57 53 C-53.5 50 -53.5 50 -51 50 C-50.67 49.01 -50.34 48.02 -50 47 C-49.34 47 -48.68 47 -48 47 C-48 46.34 -48 45.68 -48 45 C-46.64453125 43.66796875 -46.64453125 43.66796875 -44.8125 42.1875 C-40.92587448 38.95909332 -37.26114014 35.71154733 -34.25 31.625 C-31.52697098 28.44813281 -28.42503987 26.19678328 -25.09375 23.6875 C-22.86452751 22.01513337 -22.86452751 22.01513337 -21 19.5 C-18.44787118 16.30983898 -15.42220595 14.15005589 -12.17578125 11.6953125 C-9.55717478 9.65496204 -7.28154537 7.40829789 -5 5 C-3.33333333 3.33333333 -1.66666667 1.66666667 0 0 Z " fill="#F78512" transform="translate(304,377)"/>
<path d="M0 0 C1.94213867 0.09790039 1.94213867 0.09790039 4 1 C5.5012207 2.90405273 5.5012207 2.90405273 6.92578125 5.43359375 C7.73825317 6.85248901 7.73825317 6.85248901 8.56713867 8.30004883 C9.43109253 9.85308716 9.43109253 9.85308716 10.3125 11.4375 C10.92134033 12.50701904 11.53018066 13.57653809 12.1574707 14.6784668 C13.45258426 16.95380032 14.7427269 19.23196925 16.02832031 21.51269531 C18.58019328 26.03662793 21.18384879 30.53041967 23.78588867 35.02563477 C25.66909317 38.28068447 27.54388071 41.54047635 29.41796875 44.80078125 C31.72883724 48.81347628 34.06360575 52.81027088 36.42578125 56.79296875 C36.94760986 57.67750732 37.46943848 58.5620459 38.00708008 59.47338867 C38.97814468 61.11681427 39.95552436 62.75653029 40.94018555 64.3918457 C42.02097024 66.22672382 43.02024523 68.10924517 44 70 C43.67 70.66 43.34 71.32 43 72 C41.99157547 70.56839732 40.99352109 69.12948547 40 67.6875 C39.443125 66.88699219 38.88625 66.08648437 38.3125 65.26171875 C37 63 37 63 37 60 C36.34 60 35.68 60 35 60 C34.62488281 59.2265625 34.24976563 58.453125 33.86328125 57.65625 C31.46155283 52.76809744 29.07613687 47.95814093 26.125 43.375 C24 40 24 40 24 38 C23.34 38 22.68 38 22 38 C21.71125 37.195625 21.4225 36.39125 21.125 35.5625 C20.26737432 32.8673532 20.26737432 32.8673532 18 32 C17.25390625 30.29296875 17.25390625 30.29296875 16.5625 28.1875 C15.42472944 24.97429873 14.18765148 22.6434122 12 20 C9 15.44444444 9 15.44444444 9 12 C8.34 12 7.68 12 7 12 C6.32845067 10.71086513 5.66291141 9.41859796 5 8.125 C4.62875 7.40570313 4.2575 6.68640625 3.875 5.9453125 C3 4 3 4 3 2 C-0.68625888 3.22875296 -1.29733557 4.83604597 -3.08984375 8.1484375 C-4.10168603 10.14155293 -4.10168603 10.14155293 -5.125 12.875 C-6 15 -6 15 -8 16 C-9.05082696 17.80468108 -10.04317848 19.64376626 -11 21.5 C-13.77777778 26.88888889 -13.77777778 26.88888889 -16 28 C-14.40233459 21.96881308 -11.22141959 17.02279527 -8 11.75 C-7.18015625 10.38488281 -7.18015625 10.38488281 -6.34375 8.9921875 C-2.28148496 2.28148496 -2.28148496 2.28148496 0 0 Z " fill="#F68711" transform="translate(367,236)"/>
<path d="M0 0 C0.66 0.33 1.32 0.66 2 1 C1.47599609 1.79664063 1.47599609 1.79664063 0.94140625 2.609375 C0.48636719 3.31578125 0.03132813 4.0221875 -0.4375 4.75 C-0.88996094 5.44609375 -1.34242187 6.1421875 -1.80859375 6.859375 C-2.9608009 8.92957014 -3.54676982 10.68696324 -4 13 C-4.66 13 -5.32 13 -6 13 C-6.2475 13.680625 -6.495 14.36125 -6.75 15.0625 C-7.98664517 17.96861615 -9.45330381 20.5677606 -11.046875 23.28515625 C-12.24893048 25.44787083 -13.1552683 27.67698782 -14 30 C-14.66 30 -15.32 30 -16 30 C-16.27714844 30.72445313 -16.55429688 31.44890625 -16.83984375 32.1953125 C-20.29631361 40.55135748 -25.29482921 48.26924397 -30.01586914 55.96044922 C-31.63887552 58.62368228 -33.00988201 61.02964604 -34 64 C-34.66 64 -35.32 64 -36 64 C-36.103125 64.73347656 -36.20625 65.46695313 -36.3125 66.22265625 C-37.06306917 69.25478513 -38.15079765 70.94374395 -40 73.4375 C-42.48452475 77.00122166 -43.6849795 79.58971303 -44 84 C-44.33 84.99 -44.66 85.98 -45 87 C-45.66 87 -46.32 87 -47 87 C-47.71703173 80.93429913 -45.3136775 77.18859833 -42.375 72.125 C-41.88427002 71.25713867 -41.39354004 70.38927734 -40.88793945 69.49511719 C-39.27421558 66.65415693 -37.63970925 63.82603389 -36 61 C-35.44908691 60.04641602 -34.89817383 59.09283203 -34.33056641 58.11035156 C-30.85251757 52.09704384 -27.3436937 46.10221304 -23.82470703 40.11279297 C-21.96801265 36.94543233 -20.12117261 33.77252173 -18.27734375 30.59765625 C-12.30719217 20.32060805 -6.32802084 10.06194617 0 0 Z " fill="#F78610" transform="translate(118,277)"/>
<path d="M0 0 C-1.98 0.66 -3.96 1.32 -6 2 C-6.33 3.65 -6.66 5.3 -7 7 C-7.66 7 -8.32 7 -9 7 C-9.33 8.65 -9.66 10.3 -10 12 C-10.66 12 -11.32 12 -12 12 C-12.25910156 12.86625 -12.51820313 13.7325 -12.78515625 14.625 C-14.01984325 18.05512723 -15.55201941 20.88591593 -17.4375 24 C-19.80659016 27.92972191 -21.99176708 31.87298923 -24 36 C-24.66 36 -25.32 36 -26 36 C-26.38478516 37.31097656 -26.38478516 37.31097656 -26.77734375 38.6484375 C-28.01757481 42.04817632 -29.54402172 44.63310109 -31.5625 47.625 C-34.02522903 51.12912585 -34.02522903 51.12912585 -35.46484375 55.0859375 C-36.22538968 57.80613826 -38.00343646 59.03258337 -40 61 C-41.14506966 62.8804355 -42.22842327 64.79971715 -43.25 66.75 C-43.77078125 67.73484375 -44.2915625 68.7196875 -44.828125 69.734375 C-45.21484375 70.48203125 -45.6015625 71.2296875 -46 72 C-46.99 72 -47.98 72 -49 72 C-47.60449509 69.62480654 -46.20863401 67.24982368 -44.8125 64.875 C-44.36543701 64.11437256 -43.91837402 63.35374512 -43.45776367 62.57006836 C-40.96873982 58.33791844 -38.47390154 54.10934438 -35.96875 49.88671875 C-34.91652388 48.11206382 -33.86444351 46.33732247 -32.8125 44.5625 C-32.27665283 43.65862549 -31.74080566 42.75475098 -31.1887207 41.82348633 C-28.09461451 36.58970862 -25.03482822 31.33758842 -22.01171875 26.0625 C-21.67686966 25.47887192 -21.34202057 24.89524384 -20.99702454 24.29393005 C-19.36381477 21.44626897 -17.73494846 18.59626847 -16.11254883 15.74243164 C-6.06091559 -1.81827468 -6.06091559 -1.81827468 0 0 Z " fill="#F7870F" transform="translate(254,54)"/>
<path d="M0 0 C2.82535522 2.52298324 4.52088685 5.35196508 6.4140625 8.6171875 C6.74139374 9.17842316 7.06872498 9.73965881 7.40597534 10.31790161 C8.48350514 12.16768057 9.55440548 14.02119979 10.625 15.875 C11.75771536 17.82693121 12.89167121 19.77813826 14.0256958 21.72930908 C14.81139175 23.08147037 15.59649873 24.43397406 16.38104248 25.7868042 C19.17969816 30.60778054 22.01495321 35.4058777 24.8671875 40.1953125 C26.03454003 42.161856 27.20129949 44.12875008 28.36785889 46.09576416 C29.11910612 47.35934507 29.87270793 48.62152922 30.62872314 49.88226318 C31.68619623 51.6468301 32.73459316 53.41650234 33.78125 55.1875 C34.38001953 56.19167969 34.97878906 57.19585937 35.59570312 58.23046875 C36.94115904 60.88395482 37.59013348 63.06932043 38 66 C34.24859318 61.57869911 31.50223321 56.83320205 28.80078125 51.73828125 C25.19704596 44.99547567 21.27119123 38.49547231 17.25537109 31.99389648 C13.67972405 26.17905979 10.27821219 20.2854183 6.99291992 14.30200195 C5.35779237 11.33889572 3.67027432 8.5222692 1.74609375 5.734375 C0 3 0 3 0 0 Z " fill="#F78712" transform="translate(191,317)"/>
<path d="M0 0 C0.495 0.99 0.495 0.99 1 2 C-0.10760046 4.2905052 -1.27734912 6.43492359 -2.5625 8.625 C-3.15792603 9.66116455 -3.15792603 9.66116455 -3.76538086 10.71826172 C-5.16757002 13.15104539 -6.58312973 15.57573859 -8 18 C-9.14594946 19.96868241 -10.29177711 21.93743572 -11.4375 23.90625 C-13.843491 28.03630093 -16.25445519 32.16340395 -18.66796875 36.2890625 C-22.49224434 42.83289515 -26.26211847 49.40646985 -30 56 C-30.66 56 -31.32 56 -32 56 C-31.46604696 51.46139912 -29.5802582 48.70912117 -27 45 C-26.67 44.01 -26.34 43.02 -26 42 C-25.53980469 41.55011719 -25.07960938 41.10023438 -24.60546875 40.63671875 C-22.57919545 38.57100461 -21.56301697 36.41492721 -20.3125 33.8125 C-19.87550781 32.91144531 -19.43851563 32.01039063 -18.98828125 31.08203125 C-18.66214844 30.39496094 -18.33601563 29.70789063 -18 29 C-17.34 29 -16.68 29 -16 29 C-15.76410156 28.16855469 -15.52820313 27.33710938 -15.28515625 26.48046875 C-13.77931465 22.40233846 -11.73587838 18.98336974 -9.4375 15.3125 C-6.30318681 10.36510115 -6.30318681 10.36510115 -4 5 C-3.34 5 -2.68 5 -2 5 C-1.34 3.35 -0.68 1.7 0 0 Z " fill="#F68311" transform="translate(138,283)"/>
<path d="M0 0 C3.13191454 2.8960185 5.22144898 5.77496408 7.3203125 9.48046875 C7.93374512 10.55474121 8.54717773 11.62901367 9.17919922 12.73583984 C10.14237061 14.44441162 10.14237061 14.44441162 11.125 16.1875 C12.12737392 17.95117057 13.13178647 19.71366894 14.13638306 21.47607422 C14.80507868 22.64947684 15.47302914 23.82330442 16.14022827 24.99755859 C19.37924734 30.69091029 22.71933858 36.32302901 26.11767578 41.92260742 C27.89007527 44.88904852 29.46279754 47.55150681 30 51 C27.63719073 48.85199157 26.41659766 46.83319533 25 44 C24.34 43.67 23.68 43.34 23 43 C22.26924352 40.6859378 21.59861742 38.35171131 21 36 C20.34 36 19.68 36 19 36 C18.3490741 34.75264433 17.70448331 33.50198168 17.0625 32.25 C16.70285156 31.55390625 16.34320313 30.8578125 15.97265625 30.140625 C15 28 15 28 14.55859375 25.796875 C14.37425781 25.20390625 14.18992187 24.6109375 14 24 C13.01 23.67 12.02 23.34 11 23 C9.91698965 20.70401807 8.92203709 18.36522558 8 16 C6.7113001 12.82144422 6.7113001 12.82144422 4 11 C3.66666667 9.66666667 3.33333333 8.33333333 3 7 C2.34 6.67 1.68 6.34 1 6 C0.375 2.9375 0.375 2.9375 0 0 Z " fill="#F78910" transform="translate(264,56)"/>
<path d="M0 0 C0.66 0.33 1.32 0.66 2 1 C1.59652344 1.63679687 1.19304687 2.27359375 0.77734375 2.9296875 C-4.88901282 12.00067021 -10.22322516 21.25506793 -15.54321289 30.53271484 C-19.29198424 37.06554698 -23.09485476 43.55931655 -27 50 C-27.66 49.67 -28.32 49.34 -29 49 C-27.02 45.04 -25.04 41.08 -23 37 C-22.34 37 -21.68 37 -21 37 C-20.90460938 36.45988281 -20.80921875 35.91976562 -20.7109375 35.36328125 C-19.79273853 32.31102643 -18.28091371 29.90892781 -16.625 27.1875 C-14.05063704 22.86870219 -11.81022601 18.68529086 -10 14 C-9.34 14 -8.68 14 -8 14 C-7.731875 13.29875 -7.46375 12.5975 -7.1875 11.875 C-3.53365385 3.02884615 -3.53365385 3.02884615 0 0 Z " fill="#F58211" transform="translate(168,232)"/>
<path d="M0 0 C1.79068573 2.6860286 2.66055791 4.6626589 3.625 7.6875 C4.01558594 8.89986328 4.01558594 8.89986328 4.4140625 10.13671875 C4.60742188 10.75160156 4.80078125 11.36648437 5 12 C5.66 12 6.32 12 7 12 C7.79953138 15.28696233 8.09658936 16.71023192 7 20 C6.34 20 5.68 20 5 20 C4.72929687 20.71542969 4.45859375 21.43085938 4.1796875 22.16796875 C2.99538542 25.01107805 1.62641455 27.62473457 0.125 30.3125 C-3.23837889 36.40759881 -6.55127491 42.47006641 -9 49 C-9.99 49 -10.98 49 -12 49 C-10.37409742 42.94073572 -7.20953131 37.86604387 -4.0625 32.5 C-2.48258048 29.7867011 -0.90655475 27.07187275 0.65063477 24.34545898 C1.74499298 22.44325175 2.87846803 20.56358605 4.0234375 18.69140625 C5.29695555 16.00024964 5.29695555 16.00024964 4.19921875 13.18359375 C3.70035156 12.27738281 3.20148438 11.37117187 2.6875 10.4375 C0.66620437 6.69730729 -0.33277856 4.27968701 0 0 Z " fill="#F78410" transform="translate(219,198)"/>
<path d="M0 0 C3.44277838 3.12597587 5.5754578 6.40522794 7.85546875 10.4453125 C8.20257401 11.05639862 8.54967926 11.66748474 8.90730286 12.29708862 C10.00684436 14.23632592 11.09721006 16.18054921 12.1875 18.125 C12.93105333 19.43913455 13.67518827 20.75294021 14.41992188 22.06640625 C21.53086317 34.62964192 21.53086317 34.62964192 21 41 C19.3125 44.375 19.3125 44.375 17 47 C14.25 47.875 14.25 47.875 12 48 C13.32 47.34 14.64 46.68 16 46 C16 45.34 16 44.68 16 44 C16.66 44 17.32 44 18 44 C18.33 40.37 18.66 36.74 19 33 C17.515 32.505 17.515 32.505 16 32 C15.29165288 30.14480517 14.59401386 28.28455463 13.9609375 26.40234375 C12.48098453 22.70246133 10.34070722 19.45522352 8.20703125 16.1015625 C7 14 7 14 7 12 C6.34 12 5.68 12 5 12 C4.16180842 10.37750059 3.3295884 8.75191503 2.5 7.125 C2.0359375 6.22007812 1.571875 5.31515625 1.09375 4.3828125 C0 2 0 2 0 0 Z " fill="#F88811" transform="translate(420,324)"/>
<path d="M0 0 C0.66 0.33 1.32 0.66 2 1 C0.29682698 3.98214411 -1.41350758 6.96012394 -3.125 9.9375 C-3.599375 10.76830078 -4.07375 11.59910156 -4.5625 12.45507812 C-7.41771367 17.41311808 -10.41030605 22.20887071 -13.67431641 26.90893555 C-15.51786267 29.81684968 -16.84101953 32.8740741 -18.140625 36.0546875 C-19 38 -19 38 -21 41 C-21.66 41 -22.32 41 -23 41 C-23.28875 41.804375 -23.5775 42.60875 -23.875 43.4375 C-25 46 -25 46 -27 47 C-25.50660206 42.93961799 -23.5596952 39.35101457 -21.3671875 35.625 C-21.01165802 35.01922119 -20.65612854 34.41344238 -20.28982544 33.78930664 C-19.53664492 32.50750373 -18.78179835 31.22667849 -18.02539062 29.94677734 C-16.89607243 28.03566034 -15.77178145 26.12166462 -14.6484375 24.20703125 C-9.86701572 16.07427823 -4.97579322 8.0153355 0 0 Z " fill="#F8860F" transform="translate(185,249)"/>
<path d="M0 0 C0.33 0.66 0.66 1.32 1 2 C0.01196289 4.15478516 0.01196289 4.15478516 -1.52734375 6.7890625 C-2.07197266 7.73007812 -2.61660156 8.67109375 -3.17773438 9.640625 C-3.75845703 10.62546875 -4.33917969 11.6103125 -4.9375 12.625 C-5.51435547 13.61757813 -6.09121094 14.61015625 -6.68554688 15.6328125 C-8.11659874 18.09280248 -9.55499196 20.54819042 -11 23 C-10.24074219 23.74121094 -9.48148437 24.48242188 -8.69921875 25.24609375 C-6.53647227 27.45265854 -4.64624903 29.58964272 -2.8125 32.0625 C-2.32394531 32.71347656 -1.83539063 33.36445313 -1.33203125 34.03515625 C0.79120309 37.16708257 2 39.16179712 2 43 C1.34 43 0.68 43 0 43 C0 41.68 0 40.36 0 39 C-0.66 39 -1.32 39 -2 39 C-2.28875 38.195625 -2.5775 37.39125 -2.875 36.5625 C-3.73262568 33.8673532 -3.73262568 33.8673532 -6 33 C-6.495 31.515 -6.495 31.515 -7 30 C-7.99 29.34 -8.98 28.68 -10 28 C-10 27.34 -10 26.68 -10 26 C-10.99 25.67 -11.98 25.34 -13 25 C-13.20149192 21.37314539 -12.95555061 19.08771148 -11 16 C-10.566875 15.60425781 -10.13375 15.20851563 -9.6875 14.80078125 C-7.29433119 12.24695991 -5.60244559 9.30005837 -3.8125 6.3125 C-3.26045898 5.40274414 -3.26045898 5.40274414 -2.69726562 4.47460938 C-1.79435074 2.98538612 -0.89665304 1.49300185 0 0 Z " fill="#F78511" transform="translate(291,262)"/>
<path d="M0 0 C-1.65 0.33 -3.3 0.66 -5 1 C-5 1.66 -5 2.32 -5 3 C-5.7425 3.28875 -6.485 3.5775 -7.25 3.875 C-8.1575 4.24625 -9.065 4.6175 -10 5 C-10.7425 5.28875 -11.485 5.5775 -12.25 5.875 C-14.52836766 7.33966492 -14.42275816 8.4436433 -15 11 C-15.99 11.33 -16.98 11.66 -18 12 C-19.7981337 14.86799102 -20.64815389 17.94659782 -21.5625 21.1875 C-22.89183673 25.89183673 -22.89183673 25.89183673 -24 27 C-24.23363881 28.84891946 -24.41303635 30.70488031 -24.5625 32.5625 C-24.64628906 33.57441406 -24.73007813 34.58632813 -24.81640625 35.62890625 C-24.90728516 36.80259766 -24.90728516 36.80259766 -25 38 C-27 36 -27 36 -27.1171875 33.75 C-26.15396678 22.8127841 -22.78403332 13.93547365 -15 6 C-5.28072838 -1.58421851 -5.28072838 -1.58421851 0 0 Z " fill="#F98615" transform="translate(248,283)"/>
<path d="M0 0 C1.5 1.375 1.5 1.375 3 3 C3 3.66 3 4.32 3 5 C3.66 5 4.32 5 5 5 C5.28875 5.969375 5.5775 6.93875 5.875 7.9375 C6.64214682 11.10664203 6.64214682 11.10664203 9 12 C10.28308386 14.29619759 11.47392092 16.57685205 12.625 18.9375 C12.94984375 19.58396484 13.2746875 20.23042969 13.609375 20.89648438 C16 25.73297991 16 25.73297991 16 28 C16.66 28 17.32 28 18 28 C18.33 28.99 18.66 29.98 19 31 C19.66 31.33 20.32 31.66 21 32 C21.34281457 33.33092714 21.67449897 34.664733 22 36 C22.80737805 37.40298481 23.66400999 38.77854488 24.5625 40.125 C27 43.78470255 27 43.78470255 27 46 C26.34 46 25.68 46 25 46 C24.59797363 45.30140869 24.19594727 44.60281738 23.78173828 43.88305664 C22.2412908 41.20716092 20.7000979 38.53169612 19.15847778 35.85647583 C18.47123152 34.66351048 17.78427929 33.47037569 17.09762573 32.27706909 C13.69329686 26.36119621 10.28569637 20.448838 6.77734375 14.59375 C6.31247559 13.81636475 5.84760742 13.03897949 5.36865234 12.23803711 C4.5165547 10.8187769 3.65904578 9.40274741 2.79541016 7.99047852 C0 3.3296581 0 3.3296581 0 0 Z " fill="#F68410" transform="translate(269,105)"/>
<path d="M0 0 C0.99 0.33 1.98 0.66 3 1 C1.35 1.66 -0.3 2.32 -2 3 C-1.34 2.01 -0.68 1.02 0 0 Z M-3 3 C-2.67 3.99 -2.34 4.98 -2 6 C-6.75 10 -6.75 10 -9 10 C-9 10.66 -9 11.32 -9 12 C-10.63604196 13.37073786 -12.30678061 14.70055256 -14 16 C-15.91867133 17.83872669 -17.72783798 19.76334227 -19.5625 21.6875 C-22 24 -22 24 -24 24 C-24 24.66 -24 25.32 -24 26 C-25.4609375 27.5078125 -25.4609375 27.5078125 -27.375 29.125 C-28.00148438 29.66382813 -28.62796875 30.20265625 -29.2734375 30.7578125 C-31 32 -31 32 -33 32 C-33 31.34 -33 30.68 -33 30 C-31.55541992 28.5612793 -31.55541992 28.5612793 -29.54296875 26.88671875 C-24.20609543 22.34902487 -19.16290465 17.52752923 -14.09179688 12.69726562 C-10.50590931 9.29891771 -6.93278822 6.00195077 -3 3 Z " fill="#F88811" transform="translate(300,352)"/>
<path d="M0 0 C0.99 0.33 1.98 0.66 3 1 C2.68885254 1.54188965 2.37770508 2.0837793 2.05712891 2.64208984 C0.57848419 5.21900131 -0.89842161 7.79690396 -2.375 10.375 C-2.91431152 11.31569336 -3.45362305 12.25638672 -4.00927734 13.22558594 C-6.69391196 17.91995143 -9.35612843 22.62369377 -11.953125 27.3671875 C-12.40510254 28.1917041 -12.85708008 29.0162207 -13.32275391 29.86572266 C-14.17881619 31.43308378 -15.0301999 33.00301098 -15.87646484 34.57568359 C-18.78084784 39.89042392 -18.78084784 39.89042392 -21 41 C-20.41926044 36.62832164 -18.78839097 33.61708195 -16.5 29.875 C-13.89393108 25.60317592 -13.89393108 25.60317592 -12 21 C-11.34 21 -10.68 21 -10 21 C-9.85884766 20.21109375 -9.85884766 20.21109375 -9.71484375 19.40625 C-8.75416412 16.17248687 -7.19072514 13.45179277 -5.5625 10.5 C-2.69595358 5.29449794 -2.69595358 5.29449794 0 0 Z " fill="#F58212" transform="translate(241,227)"/>
<path d="M0 0 C0.66 0.33 1.32 0.66 2 1 C1.34 2.65 0.68 4.3 0 6 C-0.66 6 -1.32 6 -2 6 C-2.2371875 6.83144531 -2.474375 7.66289062 -2.71875 8.51953125 C-4.21537438 12.58505661 -6.22745198 16.01729865 -8.5 19.6875 C-8.90347656 20.35072266 -9.30695313 21.01394531 -9.72265625 21.69726562 C-11.43327192 24.50030417 -13.17835494 27.2675324 -15 30 C-17.1640625 30.29296875 -17.1640625 30.29296875 -19.625 30.1875 C-20.85089844 30.14689453 -20.85089844 30.14689453 -22.1015625 30.10546875 C-22.72804687 30.07066406 -23.35453125 30.03585937 -24 30 C-23.67 29.34 -23.34 28.68 -23 28 C-21.42798828 28.00580078 -21.42798828 28.00580078 -19.82421875 28.01171875 C-15.40132461 26.84161703 -15.09963795 26.26566661 -12.83203125 22.51953125 C-11.80060762 20.63057909 -10.79487104 18.72742091 -9.8125 16.8125 C-8.79983922 14.92228567 -7.78555562 13.03293972 -6.76953125 11.14453125 C-6.29854004 10.25459473 -5.82754883 9.3646582 -5.34228516 8.44775391 C-3.72296009 5.49479771 -1.93785948 2.75185297 0 0 Z " fill="#F88510" transform="translate(274,252)"/>
<path d="M0 0 C-1.7325 0.61875 -1.7325 0.61875 -3.5 1.25 C-15.16720767 5.6612764 -22.2228649 10.73543865 -28 22 C-29.13794048 24.64667056 -30.08779526 27.26338578 -31 30 C-31.33 30 -31.66 30 -32 30 C-31.65441285 20.669147 -27.41644222 13.96505414 -20.6875 7.625 C-15.34341854 3.15655351 -7.12924277 -2.37641426 0 0 Z " fill="#F8880F" transform="translate(251,154)"/>
<path d="M0 0 C0.66 0 1.32 0 2 0 C0.53221228 3.80641601 -1.13521108 7.46539044 -2.9375 11.125 C-3.44152344 12.15882813 -3.94554687 13.19265625 -4.46484375 14.2578125 C-5.83886858 16.71217746 -7.03502827 18.0710356 -9 20 C-10.02656158 21.74378593 -11.00191425 23.51825995 -11.9375 25.3125 C-14.10248394 29.38331767 -16.35071918 33.22986961 -19 37 C-20 34 -20 34 -18.60058594 31.07666016 C-17.90570745 29.89122817 -17.19947419 28.7124074 -16.484375 27.5390625 C-16.11274231 26.91148041 -15.74110962 26.28389832 -15.35821533 25.63729858 C-14.16497884 23.62735953 -12.95776003 21.62623866 -11.75 19.625 C-10.95088937 18.2844102 -10.15270109 16.94327014 -9.35546875 15.6015625 C-7.24833317 12.06079923 -5.12617436 8.52936279 -3 5 C-2.4627832 4.03626465 -1.92556641 3.0725293 -1.37207031 2.07958984 C-0.91928711 1.3933252 -0.46650391 0.70706055 0 0 Z " fill="#F88611" transform="translate(349,265)"/>
<path d="M0 0 C0.98187035 2.57888838 1.12277753 3.68611658 0.1015625 6.296875 C-5.4169895 15.46526298 -12.4665255 22.9228052 -23 26 C-26.5625 26.25 -26.5625 26.25 -29 26 C-28.67 25.34 -28.34 24.68 -28 24 C-25.49609375 23.3671875 -25.49609375 23.3671875 -22.4375 22.875 C-21.42558594 22.70742187 -20.41367187 22.53984375 -19.37109375 22.3671875 C-18.58863281 22.24601562 -17.80617188 22.12484375 -17 22 C-17 21.34 -17 20.68 -17 20 C-16.01 19.67 -15.02 19.34 -14 19 C-13.34 18.34 -12.68 17.68 -12 17 C-11.195625 16.21625 -10.39125 15.4325 -9.5625 14.625 C-5.21450785 10.17095926 -2.66539304 5.57432452 0 0 Z " fill="#F78311" transform="translate(291,202)"/>
<path d="M0 0 C3.08089673 2.77280706 4.68775452 5.06326356 6 9 C6.66 9 7.32 9 8 9 C8.56203125 10.1446875 9.1240625 11.289375 9.703125 12.46875 C11.91529168 16.89308335 14.3057293 21.20063134 16.75 25.5 C17.16121094 26.22703125 17.57242188 26.9540625 17.99609375 27.703125 C18.9956313 29.46974952 19.99756027 31.23502065 21 33 C20.01 33.495 20.01 33.495 19 34 C18.53102295 33.20827393 18.0620459 32.41654785 17.57885742 31.60083008 C15.82896931 28.64682497 14.07895527 25.69289453 12.32885742 22.73901367 C11.57327352 21.4636527 10.81773896 20.18826249 10.06225586 18.9128418 C8.9726252 17.07332688 7.88281367 15.23391923 6.79296875 13.39453125 C6.1383667 12.28956299 5.48376465 11.18459473 4.80932617 10.04614258 C3.64905115 8.09272855 2.46855306 6.15110407 1.26293945 4.2253418 C0 2 0 2 0 0 Z " fill="#F58311" transform="translate(201,380)"/>
<path d="M0 0 C0.66 0 1.32 0 2 0 C2.309375 1.2375 2.309375 1.2375 2.625 2.5 C5.35322484 9.44457231 10.03310629 14.62427795 16 19 C16.99 19.33 17.98 19.66 19 20 C19 20.66 19 21.32 19 22 C20.65 22 22.3 22 24 22 C23.67 22.99 23.34 23.98 23 25 C11.27810546 19.669722 4.4643128 14.0071084 -1 2 C-0.67 1.34 -0.34 0.68 0 0 Z " fill="#F78613" transform="translate(224,328)"/>
<path d="M0 0 C0.66 0.33 1.32 0.66 2 1 C-3.38315762 10.85907808 -8.77427424 20.64079637 -15 30 C-15.66 29.67 -16.32 29.34 -17 29 C-17 28.34 -17 27.68 -17 27 C-16.566875 26.5875 -16.13375 26.175 -15.6875 25.75 C-13.44659936 23.42610304 -12.37183577 20.91515101 -11 18 C-9.30035622 14.38825697 -7.8673475 11.74335409 -5 9 C-3.83874274 7.00070306 -3.83874274 7.00070306 -2.875 4.875 C-1.08333333 1.08333333 -1.08333333 1.08333333 0 0 Z " fill="#F68411" transform="translate(337,226)"/>
<path d="M0 0 C0 0.66 0 1.32 0 2 C-0.66 2 -1.32 2 -2 2 C-2.33 2.99 -2.66 3.98 -3 5 C-3.66 5 -4.32 5 -5 5 C-5 5.66 -5 6.32 -5 7 C-7.76275839 9.99298825 -10.58523191 12.76273815 -14 15 C-14.66 15 -15.32 15 -16 15 C-16 15.66 -16 16.32 -16 17 C-16.66 17 -17.32 17 -18 17 C-18.28875 17.639375 -18.5775 18.27875 -18.875 18.9375 C-20 21 -20 21 -22 22 C-21.42667654 18.35818477 -20.06870972 16.71572695 -17.4375 14.1875 C-16.72078125 13.4965625 -16.0040625 12.805625 -15.265625 12.09375 C-12.47924366 9.51874932 -9.64682988 7.00672491 -6.76171875 4.54296875 C-4.97495935 3.02700561 -4.97495935 3.02700561 -3.39453125 1.30078125 C-2 0 -2 0 0 0 Z " fill="#F88510" transform="translate(266,385)"/>
<path d="M0 0 C6.41753365 -0.25166799 10.40843291 1.10066891 16 4 C16 4.66 16 5.32 16 6 C16.61875 6.309375 17.2375 6.61875 17.875 6.9375 C19.25 7.625 20.625 8.3125 22 9 C22.40729228 11.32156597 22.74438677 13.6568787 23 16 C21.09574752 14.34412827 20.09533282 13.44942615 19.5625 10.9375 C19.19228819 8.84682161 19.19228819 8.84682161 17.25 7.9375 C16.13625 7.4734375 16.13625 7.4734375 15 7 C14.278125 6.484375 13.55625 5.96875 12.8125 5.4375 C8.96396917 3.47047313 5.26880048 3.26970635 1 3 C0.67 2.01 0.34 1.02 0 0 Z " fill="#F3800F" transform="translate(255,296)"/>
<path d="M0 0 C1 3 1 3 -0.00048828 5.15722656 C-0.51853027 5.97674805 -1.03657227 6.79626953 -1.5703125 7.640625 C-2.1375 8.54683594 -2.7046875 9.45304687 -3.2890625 10.38671875 C-3.89492187 11.33160156 -4.50078125 12.27648437 -5.125 13.25 C-5.70765625 14.17941406 -6.2903125 15.10882813 -6.890625 16.06640625 C-10.10706464 21.16511213 -13.4392203 26.13584056 -17 31 C-17.33 30.34 -17.66 29.68 -18 29 C-16.79447174 26.81814267 -15.55140331 24.7668179 -14.1875 22.6875 C-11.73612793 18.90990569 -9.51359235 15.26849061 -8 11 C-7.34 11 -6.68 11 -6 11 C-5.34 9.02 -4.68 7.04 -4 5 C-3.34 5 -2.68 5 -2 5 C-1.34 3.35 -0.68 1.7 0 0 Z " fill="#F58312" transform="translate(198,267)"/>
<path d="M0 0 C0.66 0.33 1.32 0.66 2 1 C-4 11 -10 21 -16 31 C-16.33 30.01 -16.66 29.02 -17 28 C-15.8057374 25.76481221 -14.58552135 23.72558031 -13.1875 21.625 C-10.72990131 17.86783341 -8.50689553 14.25757785 -7 10 C-6.34 10 -5.68 10 -5 10 C-4.731875 9.278125 -4.46375 8.55625 -4.1875 7.8125 C-3.01017502 5.02409874 -1.60854116 2.55904276 0 0 Z " fill="#F78512" transform="translate(253,86)"/>
<path d="M0 0 C7.23161165 0.35276154 10.83441302 4.61230153 15.4375 9.6875 C17.68175178 14.44531378 17.33139234 18.82659739 17 24 C16.67 24 16.34 24 16 24 C15.86464844 23.2265625 15.72929687 22.453125 15.58984375 21.65625 C14.03427492 14.129905 11.95145412 9.00976834 6 4 C2.78371635 2.01041473 2.78371635 2.01041473 0 1 C0 0.67 0 0.34 0 0 Z " fill="#F48013" transform="translate(260,171)"/>
<path d="M0 0 C1.41152344 0.07250977 1.41152344 0.07250977 2.8515625 0.14648438 C3.83640625 0.20255859 4.82125 0.25863281 5.8359375 0.31640625 C6.82851563 0.36861328 7.82109375 0.42082031 8.84375 0.47460938 C11.29978318 0.60449574 13.7554311 0.73946789 16.2109375 0.87890625 C12.4609375 3.87890625 12.4609375 3.87890625 10.2109375 3.87890625 C10.2109375 3.21890625 10.2109375 2.55890625 10.2109375 1.87890625 C7.96031296 1.91200367 5.71020285 1.98148501 3.4609375 2.06640625 C2.20796875 2.10121094 0.955 2.13601562 -0.3359375 2.171875 C-3.93280517 2.57434931 -3.93280517 2.57434931 -6.1796875 5.3046875 C-7.7603419 7.74234433 -7.7603419 7.74234433 -8.7890625 9.87890625 C-9.4490625 9.87890625 -10.1090625 9.87890625 -10.7890625 9.87890625 C-6.80381176 -0.36888136 -6.80381176 -0.36888136 0 0 Z " fill="#F7830E" transform="translate(285.7890625,241.12109375)"/>
<path d="M0 0 C0.66 0 1.32 0 2 0 C0.7874262 3.72433382 -0.50859979 7.37802806 -2 11 C-1.34 11 -0.68 11 0 11 C0 11.66 0 12.32 0 13 C2.97 13 5.94 13 9 13 C9 13.33 9 13.66 9 14 C7.22992286 14.08114106 5.45877902 14.13925505 3.6875 14.1875 C2.70136719 14.22230469 1.71523437 14.25710938 0.69921875 14.29296875 C-2 14 -2 14 -3.85546875 12.48828125 C-4.23316406 11.99714844 -4.61085938 11.50601562 -5 11 C-4.54917531 9.53932801 -4.08906463 8.08151968 -3.625 6.625 C-3.36976562 5.81289063 -3.11453125 5.00078125 -2.8515625 4.1640625 C-2 2 -2 2 0 0 Z " fill="#F7800D" transform="translate(104,340)"/>
<path d="M0 0 C0.66 0 1.32 0 2 0 C0.8905928 3.48670834 -0.26337666 6.77484237 -2 10 C-2.66 10 -3.32 10 -4 10 C-4.268125 10.70125 -4.53625 11.4025 -4.8125 12.125 C-6.0681449 15.1649824 -7.50235123 18.0727774 -9 21 C-10 18 -10 18 -9.19555664 16.00708008 C-8.55928345 14.89949341 -8.55928345 14.89949341 -7.91015625 13.76953125 C-7.45576172 12.96708984 -7.00136719 12.16464844 -6.53320312 11.33789062 C-6.04787109 10.50451172 -5.56253906 9.67113281 -5.0625 8.8125 C-4.58103516 7.96751953 -4.09957031 7.12253906 -3.60351562 6.25195312 C-2.4112945 4.16261511 -1.20990182 2.07913325 0 0 Z " fill="#F88710" transform="translate(321,208)"/>
<path d="M0 0 C0 4.03718359 -1.52970931 5.29177761 -4.14453125 8.2109375 C-7.0434275 11.00608378 -10.25481976 13.46679189 -14 15 C-14.99 14.67 -15.98 14.34 -17 14 C-16.360625 13.71125 -15.72125 13.4225 -15.0625 13.125 C-12.84793921 12.17176549 -12.84793921 12.17176549 -12 10 C-11.113125 9.608125 -10.22625 9.21625 -9.3125 8.8125 C-5.18643366 6.55484106 -2.84124307 3.67749547 0 0 Z " fill="#F78512" transform="translate(289,336)"/>
<path d="M0 0 C3.32366742 3.05099404 5.54224226 6.23449516 7.8125 10.125 C8.43769531 11.17945313 9.06289062 12.23390625 9.70703125 13.3203125 C10.13371094 14.20460938 10.56039062 15.08890625 11 16 C10.67 16.66 10.34 17.32 10 18 C7.04250209 14.53258866 4.92151848 11.13126473 3 7 C2.01 7 1.02 7 0 7 C0 4.69 0 2.38 0 0 Z " fill="#F88711" transform="translate(180,299)"/>
<path d="M0 0 C7.81237304 1.1526452 13.78727761 4.07627235 20 9 C20 9.66 20 10.32 20 11 C19.34 11 18.68 11 18 11 C18 10.34 18 9.68 18 9 C17.29875 8.731875 16.5975 8.46375 15.875 8.1875 C13 7 13 7 9.875 5.375 C7.08008076 3.78427225 7.08008076 3.78427225 4 4 C4 3.34 4 2.68 4 2 C3.01 2.33 2.02 2.66 1 3 C0.67 2.01 0.34 1.02 0 0 Z " fill="#F88A0E" transform="translate(262,153)"/>
<path d="M0 0 C2.12168573 2.05891396 4.01323707 4.20550298 5.875 6.5 C8.3017232 9.36960019 10.59994673 11.29997336 14 13 C13.67 13.99 13.34 14.98 13 16 C11 15 11 15 9 13 C8.34 12.67 7.68 12.34 7 12 C3.39036029 8.43823349 0.31966076 5.27440258 0 0 Z " fill="#F88510" transform="translate(236,197)"/>
<path d="M0 0 C0.70125 0.144375 1.4025 0.28875 2.125 0.4375 C0.20976815 2.45913362 -1.7458751 4.13064549 -3.9375 5.875 C-6.49098906 8.10251173 -7.72745468 9.33912763 -8.875 12.4375 C-9.535 12.4375 -10.195 12.4375 -10.875 12.4375 C-9.25726242 7.09896599 -5.84246637 0.88907097 0 0 Z " fill="#F78313" transform="translate(250.875,297.5625)"/>
<path d="M0 0 C1.134375 0.020625 2.26875 0.04125 3.4375 0.0625 C3.4375 0.7225 3.4375 1.3825 3.4375 2.0625 C-0.17243172 3.19730527 -3.5467327 3.16265767 -7.3125 3.125 C-8.48296875 3.11597656 -9.6534375 3.10695313 -10.859375 3.09765625 C-11.75140625 3.08605469 -12.6434375 3.07445312 -13.5625 3.0625 C-13.5625 2.7325 -13.5625 2.4025 -13.5625 2.0625 C-12.60537109 1.97162109 -12.60537109 1.97162109 -11.62890625 1.87890625 C-10.38947266 1.75322266 -10.38947266 1.75322266 -9.125 1.625 C-8.30128906 1.54378906 -7.47757812 1.46257812 -6.62890625 1.37890625 C-3.33534244 0.87459875 -3.95275298 0.06934654 0 0 Z " fill="#F88215" transform="translate(267.5625,350.9375)"/>
<path d="M0 0 C0.66 0.33 1.32 0.66 2 1 C-0.00844092 5.92980953 -3.64105074 9.09403383 -8 12 C-6.46920333 8.55570748 -4.38345294 5.90483327 -2 3 C-1.34 2.01 -0.68 1.02 0 0 Z " fill="#F78610" transform="translate(275,197)"/>
<path d="M0 0 C3.67758005 3.28355362 5.81389118 6.62778237 8 11 C7.67 11.66 7.34 12.32 7 13 C0 4.79310345 0 4.79310345 0 0 Z " fill="#F68713" transform="translate(230,384)"/>
<path d="M0 0 C3.40843742 2.88406243 4.86591384 4.3708265 5.8125 8.8125 C5.9053125 10.3903125 5.9053125 10.3903125 6 12 C5.01 12.66 4.02 13.32 3 14 C3.2475 13.319375 3.495 12.63875 3.75 11.9375 C4.11652113 7.63087671 2.26398048 5.63608986 0 2 C0 1.34 0 0.68 0 0 Z " fill="#F98713" transform="translate(320,193)"/>
<path d="M0 0 C7.42857143 -0.28571429 7.42857143 -0.28571429 11 2 C3.57142857 3.28571429 3.57142857 3.28571429 0 2 C0 1.34 0 0.68 0 0 Z " fill="#F6821B" transform="translate(255,296)"/>
<path d="M0 0 C2.475 0.495 2.475 0.495 5 1 C5.144375 1.928125 5.28875 2.85625 5.4375 3.8125 C5.92100111 7.00725111 5.92100111 7.00725111 7 10 C6.34 10 5.68 10 5 10 C3.35 6.7 1.7 3.4 0 0 Z " fill="#F8840F" transform="translate(313,182)"/>
<path d="M0 0 C0.66 0 1.32 0 2 0 C2.66 0.66 3.32 1.32 4 2 C4.66 2 5.32 2 6 2 C6.33 3.32 6.66 4.64 7 6 C4.625 5.8125 4.625 5.8125 2 5 C0.6875 2.4375 0.6875 2.4375 0 0 Z " fill="#F7850F" transform="translate(73,366)"/>
<path d="M0 0 C0.33 0.66 0.66 1.32 1 2 C0.07421875 4.12890625 0.07421875 4.12890625 -1.3125 6.5625 C-1.98732422 7.77099609 -1.98732422 7.77099609 -2.67578125 9.00390625 C-4 11 -4 11 -6 12 C-5.36934243 8.78147169 -4.21979305 6.49198931 -2.4375 3.75 C-1.98246094 3.04359375 -1.52742188 2.3371875 -1.05859375 1.609375 C-0.53458984 0.81273437 -0.53458984 0.81273437 0 0 Z " fill="#F7850F" transform="translate(309,230)"/>
<path d="M0 0 C0.99 0 1.98 0 3 0 C3.185625 0.9590625 3.185625 0.9590625 3.375 1.9375 C3.684375 2.9584375 3.684375 2.9584375 4 4 C4.66 4.33 5.32 4.66 6 5 C5.67 5.99 5.34 6.98 5 8 C2.20127563 5.47211993 0.54226981 3.79588866 0 0 Z " fill="#F68310" transform="translate(196,372)"/>
<path d="M0 0 C3.2542015 2.83430453 4.5206753 4.68607774 5 9 C1.7457985 6.16569547 0.4793247 4.31392226 0 0 Z " fill="#F98510" transform="translate(238,397)"/>
</svg>
